<svg id="_002-call-1" data-name="002-call-1" xmlns="http://www.w3.org/2000/svg" width="11.797" height="11.797" viewBox="0 0 11.797 11.797">
  <g id="Group_45" data-name="Group 45">
    <path id="Path_39" data-name="Path 39" d="M10.85,7.743a6.7,6.7,0,0,1-2.1-.335.961.961,0,0,0-.935.2l-1.326,1a7.331,7.331,0,0,1-3.3-3.3L4.161,4.02A.954.954,0,0,0,4.4,3.054,6.708,6.708,0,0,1,4.06.947.948.948,0,0,0,3.113,0H.947A.948.948,0,0,0,0,.947,10.863,10.863,0,0,0,10.85,11.8a.948.948,0,0,0,.947-.947V8.69A.948.948,0,0,0,10.85,7.743Z" fill="#fff"/>
  </g>
</svg>
