<svg id="aboutus" xmlns="http://www.w3.org/2000/svg" width="16.633" height="16.643" viewBox="0 0 16.633 16.643">
  <path id="Path_10" data-name="Path 10" d="M23.173,1.07h2.08a1.44,1.44,0,0,0,.285.119A8.194,8.194,0,0,1,32.092,6.75c.191.516.295,1.065.439,1.6v2.08a2.052,2.052,0,0,0-.126.351A8.312,8.312,0,1,1,22.316,1.3C22.6,1.233,22.887,1.148,23.173,1.07Zm2.946,12.389c-1.547.217-1.766-.029-1.422-1.415.031-.126.06-.252.093-.377.186-.709.405-1.412.55-2.13a1.368,1.368,0,0,0-.91-1.707,3.416,3.416,0,0,0-2.436.387c-.13.057-.183.289-.3.483a1.459,1.459,0,0,0,.275.035c1.213-.162,1.428.079,1.142,1.292-.05.21-.117.415-.172.624-.171.647-.367,1.288-.5,1.942a1.373,1.373,0,0,0,.785,1.721,3.114,3.114,0,0,0,2.61-.342C25.953,13.914,25.993,13.7,26.119,13.459Zm.077-8A1.189,1.189,0,0,0,24.985,4.3a1.213,1.213,0,0,0-1.293,1.161,1.245,1.245,0,0,0,1.285,1.185A1.221,1.221,0,0,0,26.2,5.464Z" transform="translate(-15.898 -1.07)" fill="#fff"/>
</svg>
