<svg id="admission" xmlns="http://www.w3.org/2000/svg" width="13.744" height="13.757" viewBox="0 0 13.744 13.757">
  <path id="Path_11" data-name="Path 11" d="M74.84,28.364V16.547a1.587,1.587,0,0,1,.967-.967h6.338c-.018.856-.027,1.712-.056,2.567-.016.476.172.679.665.663.835-.027,1.671-.007,2.553-.007,0,.417-.029.775.007,1.125A1.188,1.188,0,0,1,84.865,21c-.593.543-1.113,1.168-1.725,1.688a3.878,3.878,0,0,0-1.283,2.288,1.6,1.6,0,0,0,.226,1.078.879.879,0,0,0,1.123.222c.7-.279,1.379-.592,2.1-.905,0,.764.007,1.614,0,2.463-.011,1.051-.46,1.493-1.515,1.494-2.468,0-4.936-.011-7.4.008A1.451,1.451,0,0,1,74.84,28.364Zm4.777-7.949c.892,0,1.785,0,2.677,0,.3,0,.571-.058.572-.4s-.294-.4-.578-.4q-2.623,0-5.246,0c-.283,0-.61.053-.551.4.028.161.357.375.559.385C77.9,20.439,78.761,20.414,79.617,20.414Zm-.693.808c-.624,0-1.248,0-1.872,0-.279,0-.579.03-.582.393s.268.412.564.411c1.212,0,2.425.017,3.636-.019.2-.006.537-.219.565-.378.059-.338-.259-.406-.547-.407C80.1,21.221,79.512,21.222,78.924,21.222Zm-.094,2.415c.624,0,1.248,0,1.872,0,.3,0,.59-.084.534-.418a.677.677,0,0,0-.524-.369c-1.229-.033-2.46-.019-3.69-.016-.287,0-.607.071-.532.416.036.163.366.351.576.369C77.65,23.669,78.241,23.637,78.83,23.637Zm.033,1.611c.624,0,1.25.03,1.87-.018.186-.015.355-.248.532-.381-.177-.134-.351-.379-.532-.384q-1.871-.051-3.743,0c-.179,0-.353.25-.529.384.176.133.345.368.531.382C77.612,25.278,78.239,25.248,78.862,25.248Zm2.452,1.614v0a9.147,9.147,0,0,0-1.229.019.618.618,0,0,0-.382.4c-.024.082.221.345.352.351.8.035,1.605.039,2.406,0,.144-.007.277-.252.415-.388-.146-.128-.279-.343-.441-.367A7.52,7.52,0,0,0,81.315,26.862Z" transform="translate(-74.84 -15.58)" fill="#fff"/>
  <path id="Path_12" data-name="Path 12" d="M308.122,15.59a4.562,4.562,0,0,1,2.121,2.385H307.8V15.59Z" transform="translate(-299.743 -15.59)" fill="#fff"/>
  <path id="Path_13" data-name="Path 13" d="M324.476,176.817c-.008-.007-.078-.058-.143-.117-.316-.289-.631-.581-.913-.841l2.667-2.659.991,1.014Z" transform="translate(-314.823 -167.749)" fill="#fff"/>
  <path id="Path_14" data-name="Path 14" d="M415.18,131.469c.79-.911,1.293-1.078,1.736-.636s.29.911-.682,1.777a7.4,7.4,0,0,0-.47-.629A6.869,6.869,0,0,0,415.18,131.469Z" transform="translate(-403.41 -126.62)" fill="#fff"/>
  <path id="Path_15" data-name="Path 15" d="M301.157,266.38l1.033,1-1.23.248Z" transform="translate(-293.14 -257.706)" fill="#fff"/>
</svg>
