<svg xmlns="http://www.w3.org/2000/svg" width="13.453" height="10.126" viewBox="0 0 13.453 10.126">
  <g id="admitcard" transform="translate(0 0)">
    <path id="Path_16" data-name="Path 16" d="M35.57,67.776V59.993a1.9,1.9,0,0,1,2-1.171c3.2.037,6.4.014,9.607.014,1.253,0,1.842.581,1.843,1.817q0,3.231,0,6.462a1.6,1.6,0,0,1-1.842,1.818c-3.2,0-6.4-.023-9.607.014A1.9,1.9,0,0,1,35.57,67.776ZM39.738,66.7h1.993c.387,0,.564-.183.569-.581a1.522,1.522,0,0,0-1.367-1.641,13.316,13.316,0,0,0-2.354.007,1.509,1.509,0,0,0-1.334,1.563c-.014.48.2.666.657.657C38.514,66.689,39.127,66.7,39.738,66.7Zm1.421-4.243a1.386,1.386,0,1,0-1.37,1.427A1.4,1.4,0,0,0,41.159,62.455Zm4.186-1.093a11.6,11.6,0,0,0-1.411.019.313.313,0,0,0-.13.052.424.424,0,0,0,0,.7.247.247,0,0,0,.126.047c.958.039,1.918.018,2.878.02.3,0,.565-.126.5-.44a.682.682,0,0,0-.5-.383A13.213,13.213,0,0,0,45.345,61.361Zm.088,4.5a13.7,13.7,0,0,0-1.514.02.292.292,0,0,0-.14.062.427.427,0,0,0,0,.692.223.223,0,0,0,.116.044c.992.036,1.987.036,2.979,0a.224.224,0,0,0,.117-.044.423.423,0,0,0,0-.689.319.319,0,0,0-.144-.063A11.443,11.443,0,0,0,45.433,65.859Zm-.07-1.423a11.3,11.3,0,0,0,1.409-.019.379.379,0,0,0,.122-.04.412.412,0,0,0,.007-.727.279.279,0,0,0-.117-.035c-.939-.043-1.881-.022-2.822-.018-.293,0-.57.116-.5.44a.676.676,0,0,0,.493.379A12.334,12.334,0,0,0,45.362,64.436Z" transform="translate(-35.57 -58.822)" fill="#fff"/>
  </g>
</svg>
