<svg xmlns="http://www.w3.org/2000/svg" width="11.756" height="11.797" viewBox="0 0 11.756 11.797">
  <g id="category" transform="translate(0 0)">
    <path id="Path_17" data-name="Path 17" d="M191.165,57.756c-.842,0-1.685.006-2.527,0-.68-.006-1.107-.388-1.09-.955s.425-.9,1.091-.905q2.5-.009,5.005,0c.666,0,1.071.352,1.085.905.014.576-.4.947-1.085.954C192.817,57.762,191.99,57.756,191.165,57.756Z" transform="translate(-182.972 -55.281)" fill="#fff"/>
    <path id="Path_18" data-name="Path 18" d="M191.16,319.136c-.843,0-1.685,0-2.527,0-.68-.005-1.108-.383-1.093-.951.014-.551.424-.9,1.089-.9q2.5-.009,5,0c.686,0,1.1.374,1.088.949-.013.555-.418.9-1.083.905C192.812,319.141,191.986,319.136,191.16,319.136Z" transform="translate(-182.965 -307.949)" fill="#fff"/>
    <path id="Path_19" data-name="Path 19" d="M190.206,188.805c-.842,0-1.684.008-2.526,0a.92.92,0,1,1-.006-1.831q2.576-.013,5.152,0a.92.92,0,1,1,.006,1.83C191.957,188.813,191.081,188.805,190.206,188.805Z" transform="translate(-182.125 -181.985)" fill="#fff"/>
    <path id="Path_20" data-name="Path 20" d="M53.476,39.177a1.533,1.533,0,1,1-3.066-.021,1.541,1.541,0,0,1,1.563-1.535A1.569,1.569,0,0,1,53.476,39.177Z" transform="translate(-50.409 -37.622)" fill="#fff"/>
    <path id="Path_21" data-name="Path 21" d="M51.91,298.636a1.546,1.546,0,0,1,.033,3.091,1.546,1.546,0,0,1-.033-3.091Z" transform="translate(-50.398 -289.93)" fill="#fff"/>
    <path id="Path_22" data-name="Path 22" d="M51.929,171.559a1.535,1.535,0,0,1-.007-3.07A1.55,1.55,0,0,1,53.464,170,1.534,1.534,0,0,1,51.929,171.559Z" transform="translate(-50.397 -164.124)" fill="#fff"/>
  </g>
</svg>
