<svg xmlns="http://www.w3.org/2000/svg" width="10.454" height="13.177" viewBox="0 0 10.454 13.177">
  <g id="disclaimer" transform="translate(0 0)">
    <path id="Path_23" data-name="Path 23" d="M82.923,36.877H75.95a2.61,2.61,0,0,1-.036-.3q0-6.266,0-12.532a3.237,3.237,0,0,1,.034-.34H86.367v9.774H82.923ZM77.975,28.7h6.347V28.01H77.975Zm6.347,1.667v-.7H77.994v.7ZM77.977,32h6.344v-.683H77.977Zm4.817-5.937H79.527v.708h3.266ZM81.119,34.2v-.7H79.6v.7Zm-2.371-.7h-.759v.7h.759Z" transform="translate(-75.913 -23.7)" fill="#fff"/>
    <path id="Path_24" data-name="Path 24" d="M302.56,331.349V328.74H305.2Z" transform="translate(-295.097 -318.562)" fill="#fff"/>
  </g>
</svg>
