<svg id="govjob" xmlns="http://www.w3.org/2000/svg" width="13.745" height="11.365" viewBox="0 0 13.745 11.365">
  <path id="Path_25" data-name="Path 25" d="M34.84,212.8V208.11c2,.659,4,1.3,5.992,1.987a2.571,2.571,0,0,0,1.766,0c1.989-.683,3.991-1.33,5.987-1.992V212.8a1.837,1.837,0,0,1-1.967,1.211q-4.9-.048-9.81,0A1.836,1.836,0,0,1,34.84,212.8Z" transform="translate(-34.84 -202.644)" fill="#fff"/>
  <path id="Path_26" data-name="Path 26" d="M34.84,60.027v-1.7a1.794,1.794,0,0,1,1.972-1.208c.851.043,1.706.009,2.588.009.016-.258.023-.449.039-.64a1.064,1.064,0,0,1,1.067-1.051c.8-.026,1.61-.026,2.414,0a1.063,1.063,0,0,1,1.066,1.053c.018.2.028.407.043.637.907,0,1.749.035,2.586-.009a1.788,1.788,0,0,1,1.97,1.208v1.7c-1.475.472-3,.832-4.413,1.445a5.828,5.828,0,0,1-4.914-.006C37.839,60.86,36.316,60.5,34.84,60.027Zm5.771-3.468c-.055.55-.055.556.379.562.482.007.966-.015,1.447.006s.481-.212.361-.568Z" transform="translate(-34.84 -55.414)" fill="#fff"/>
</svg>
