<svg id="Group_53" data-name="Group 53" xmlns="http://www.w3.org/2000/svg" width="12.991" height="13.462" viewBox="0 0 12.991 13.462">
  <path id="Path_75" data-name="Path 75" d="M90.041,56.553c.493,0,.955,0,1.417,0,.422,0,.594.154.572.568a6.2,6.2,0,0,1-.172,1.6,2.826,2.826,0,0,1-2.393,2.011.74.74,0,0,0-.642.506,6.651,6.651,0,0,1-2.371,2.952,1.486,1.486,0,0,1-1.826,0,6.651,6.651,0,0,1-2.371-2.952.717.717,0,0,0-.642-.5,2.99,2.99,0,0,1-2.56-2.833c-.013-.268-.013-.541-.009-.809.009-.374.163-.524.541-.532.471-.009.941,0,1.43,0,.044-.238.075-.453.128-.669A.584.584,0,0,1,81.8,55.4c2.472.013,4.949,0,7.422.009.506,0,.673.141.765.647C90.006,56.2,90.015,56.355,90.041,56.553Zm-5.636,3.854c.339-.176.62-.343.915-.466a.6.6,0,0,1,.427,0c.295.123.572.29.911.466a7.328,7.328,0,0,0-.141-.845.59.59,0,0,1,.229-.7c.207-.172.387-.378.612-.6a9.583,9.583,0,0,1-1-.163.661.661,0,0,1-.361-.264c-.167-.264-.295-.559-.462-.893-.163.33-.3.585-.418.853a.469.469,0,0,1-.444.334c-.3.018-.6.088-.977.145.251.238.431.44.642.6a.565.565,0,0,1,.22.669A7.731,7.731,0,0,0,84.406,60.406Zm6.744-2.965H89.993c-.2.814-.4,1.6-.594,2.393A2.115,2.115,0,0,0,91.15,57.441Zm-11.214,0c-.207,1.131.818,2.516,1.729,2.371-.2-.792-.4-1.579-.594-2.371Z" transform="translate(-79.04 -55.4)" fill="#fff"/>
  <path id="Path_76" data-name="Path 76" d="M116.2,317.232c0-.4-.013-.783,0-1.166a.862.862,0,0,1,.8-.849,3.467,3.467,0,0,1,.37-.018h7.351c.893,0,1.183.295,1.183,1.2v.836Z" transform="translate(-114.558 -303.77)" fill="#fff"/>
  <path id="Path_77" data-name="Path 77" d="M187.712,266.2a3.036,3.036,0,0,0,1.1,1.777H185.2a2.758,2.758,0,0,0,1.109-1.782A1.247,1.247,0,0,0,187.712,266.2Z" transform="translate(-180.53 -256.926)" fill="#fff"/>
</svg>
