<svg xmlns="http://www.w3.org/2000/svg" width="15.386" height="13.677" viewBox="0 0 15.386 13.677">
  <path id="house-solid" d="M15.382,6.825a.863.863,0,0,1-.855.858h-.855l.019,4.28a1.96,1.96,0,0,1-.013.216v.43a1.068,1.068,0,0,1-1.069,1.069h-.427c-.029,0-.059,0-.088,0s-.075,0-.112,0H10.472A1.068,1.068,0,0,1,9.4,12.609V10.258A.854.854,0,0,0,8.548,9.4H6.839a.854.854,0,0,0-.855.855v2.351a1.068,1.068,0,0,1-1.069,1.069H3.422c-.04,0-.08,0-.12-.005s-.064.005-.1.005H2.778A1.068,1.068,0,0,1,1.71,12.609V9.617a.7.7,0,0,1,0-.075V7.683H.855A.845.845,0,0,1,0,6.825a.868.868,0,0,1,.267-.641L7.117.214A.771.771,0,0,1,7.7,0a.887.887,0,0,1,.561.187l6.823,6A.732.732,0,0,1,15.382,6.825Z" fill="#fff"/>
</svg>
