<svg id="icon-label" xmlns="http://www.w3.org/2000/svg" width="9.625" height="9.626" viewBox="0 0 9.625 9.626">
  <path id="Path_64" data-name="Path 64" d="M72.145,65.132c-.282,0-.552,0-.823,0a.6.6,0,1,1-.017-1.2c.38-.008.761,0,1.154,0l.6-2.421h-.233c-.511,0-1.022,0-1.532,0A.61.61,0,0,1,70.681,61a.593.593,0,0,1,.383-.647.861.861,0,0,1,.285-.04c.614,0,1.228-.006,1.843,0,.139,0,.188-.044.219-.174q.213-.895.447-1.785a.583.583,0,0,1,.55-.441.57.57,0,0,1,.582.393A.892.892,0,0,1,75,58.72c-.1.46-.223.916-.336,1.373-.015.061-.026.123-.043.2h2.958c.117-.463.235-.931.353-1.4.043-.169.08-.339.125-.508a.6.6,0,0,1,.717-.465.6.6,0,0,1,.446.759c-.127.533-.262,1.063-.4,1.625.281,0,.542,0,.8,0a.607.607,0,0,1,.677.588.616.616,0,0,1-.676.614c-.323,0-.647,0-.97,0-.054,0-.144.048-.155.09-.2.762-.386,1.525-.583,2.315.086,0,.153.01.22.01.511,0,1.022,0,1.532,0a.611.611,0,0,1,.621.483.587.587,0,0,1-.315.648.834.834,0,0,1-.336.067c-.614.006-1.228.008-1.843,0a.2.2,0,0,0-.233.183q-.206.876-.437,1.747a.592.592,0,0,1-.848.408.607.607,0,0,1-.3-.741c.114-.464.231-.927.347-1.39.014-.055.023-.112.038-.186H73.4c-.038.145-.082.3-.122.465-.117.463-.231.927-.349,1.39a.6.6,0,1,1-1.164-.3c.118-.483.24-.965.36-1.447C72.134,65.225,72.137,65.188,72.145,65.132Zm1.554-1.2c.975,0,1.924,0,2.872,0a.156.156,0,0,0,.116-.089c.2-.767.389-1.536.587-2.326-.973,0-1.927,0-2.881,0a.157.157,0,0,0-.109.1C74.088,62.373,73.9,63.136,73.7,63.929Z" transform="translate(-70.674 -57.907)" fill="#5d5d5d"/>
</svg>
