<svg id="icon-calender" xmlns="http://www.w3.org/2000/svg" width="11.838" height="11.832" viewBox="0 0 11.838 11.832">
  <path id="Path_67" data-name="Path 67" d="M55.963,40v6.936a2.4,2.4,0,0,1-1.989,1.989H46.113a.417.417,0,0,0-.08-.038,2.273,2.273,0,0,1-1.906-2.321q-.005-3.1,0-6.192A2.274,2.274,0,0,1,46.5,38.01h.353c0-.163,0-.291,0-.423a.462.462,0,1,1,.922,0c0,.135,0,.27,0,.405h4.532v-.364a.466.466,0,1,1,.925-.01c0,.128,0,.253,0,.395.191,0,.343,0,.5,0a2.269,2.269,0,0,1,2.117,1.576C55.894,39.722,55.925,39.86,55.963,40ZM45.049,41.665v4.878A1.364,1.364,0,0,0,46.511,48h7.047a1.367,1.367,0,0,0,1.476-1.466V41.665Zm2.727-2.723c0,.3.007.586,0,.87a.45.45,0,0,1-.44.471.455.455,0,0,1-.482-.478c-.007-.288,0-.579,0-.859a1.444,1.444,0,0,0-1.767,1.774H55.01a1.43,1.43,0,0,0-1.76-1.753.183.183,0,0,0-.01.042c0,.246,0,.492,0,.738,0,.34-.18.541-.471.534s-.45-.2-.454-.53c0-.267,0-.534,0-.814C50.794,38.942,49.3,38.942,47.776,38.942Z" transform="translate(-44.125 -37.095)" fill="#5d5d5d"/>
  <path id="Path_68" data-name="Path 68" d="M110.261,208.24c-.093,0-.188,0-.281,0a.287.287,0,0,1-.279-.279.284.284,0,0,1,.277-.281c.188-.006.377-.006.563,0a.28.28,0,0,1,.279.279.284.284,0,0,1-.277.281C110.449,208.245,110.356,208.24,110.261,208.24Z" transform="translate(-107.266 -201.569)" fill="#5d5d5d"/>
  <path id="Path_69" data-name="Path 69" d="M189.054,208.314c-.093,0-.188,0-.281,0a.28.28,0,1,1,0-.561c.184,0,.366,0,.55,0a.28.28,0,1,1,0,.561C189.232,208.318,189.143,208.314,189.054,208.314Z" transform="translate(-183.129 -201.642)" fill="#5d5d5d"/>
  <path id="Path_70" data-name="Path 70" d="M189.059,286.94c-.093,0-.188,0-.281,0a.284.284,0,0,1-.277-.281.28.28,0,0,1,.277-.279c.188-.006.377-.006.563,0a.28.28,0,0,1,0,.561C189.247,286.945,189.152,286.94,189.059,286.94Z" transform="translate(-183.141 -277.452)" fill="#5d5d5d"/>
  <path id="Path_71" data-name="Path 71" d="M267.861,208.24c-.093,0-.188,0-.281,0a.28.28,0,0,1,0-.561c.188-.006.377-.006.563,0a.28.28,0,0,1,0,.561C268.049,208.245,267.954,208.24,267.861,208.24Z" transform="translate(-259.016 -201.569)" fill="#5d5d5d"/>
  <path id="Path_72" data-name="Path 72" d="M110.359,286.94c-.093,0-.188,0-.281,0a.284.284,0,0,1-.277-.281.28.28,0,0,1,.277-.279c.188-.006.377-.006.563,0a.278.278,0,0,1,.277.279.286.286,0,0,1-.279.281C110.547,286.945,110.452,286.94,110.359,286.94Z" transform="translate(-107.363 -277.452)" fill="#5d5d5d"/>
  <path id="Path_73" data-name="Path 73" d="M267.762,287.014c-.089,0-.178,0-.269,0a.288.288,0,0,1-.294-.279.282.282,0,0,1,.29-.281c.184,0,.366,0,.55,0a.279.279,0,0,1,.279.277.284.284,0,0,1-.275.284c-.093,0-.186,0-.281,0Z" transform="translate(-258.918 -277.525)" fill="#5d5d5d"/>
</svg>
