<svg id="privatejob" xmlns="http://www.w3.org/2000/svg" width="13.744" height="11.045" viewBox="0 0 13.744 11.045">
  <path id="Path_29" data-name="Path 29" d="M77.082,74.114c1.143,0,2.21,0,3.278,0,.869,0,1,.139.984,1.02A4.314,4.314,0,0,1,76.31,79.46a12.021,12.021,0,0,0-.913-1.826,1.389,1.389,0,0,0-.992-.322c-.934-.01-1.319.546-1.553,2.1A4.362,4.362,0,0,1,67.6,74.924c.012-.575.251-.818.815-.813,1.115.01,2.229,0,3.455,0,0-.288,0-.533,0-.779a.811.811,0,0,1,.872-.9c1.159-.024,2.319-.026,3.478,0a.811.811,0,0,1,.857.915C77.081,73.564,77.082,73.777,77.082,74.114Zm-.58-.025c.092-1.108.092-1.109-.933-1.109H73.32c-.971,0-1.035.087-.816,1.109Z" transform="translate(-67.604 -72.418)" fill="#fff"/>
  <path id="Path_30" data-name="Path 30" d="M67.913,194.795a5.4,5.4,0,0,0,4.836,2.317,1,1,0,0,1,.694.38,1.59,1.59,0,0,0,2.668-.028.851.851,0,0,1,.582-.354,5.414,5.414,0,0,0,4.944-2.331v2.528c0,.772.008,1.544,0,2.316-.009.663-.234.908-.882.909q-5.992.011-11.985,0c-.459,0-.84-.163-.846-.676C67.9,198.171,67.913,196.483,67.913,194.795Z" transform="translate(-67.896 -189.491)" fill="#fff"/>
  <path id="Path_31" data-name="Path 31" d="M204.22,200.022a1.108,1.108,0,0,1-.682,1.256.958.958,0,0,1-1.155-.328,1.855,1.855,0,0,1,.028-1.936,1.23,1.23,0,0,1,.946-.346c.326.1.589.481.818.787C204.271,199.583,204.21,199.829,204.22,200.022Z" transform="translate(-196.311 -193.195)" fill="#fff"/>
</svg>
