<svg xmlns="http://www.w3.org/2000/svg" width="13.675" height="13.574" viewBox="0 0 13.675 13.574">
  <g id="privacypolicy" transform="translate(0 0)">
    <path id="Path_27" data-name="Path 27" d="M43.97,32.034c-1.027,0-2,.008-2.971,0-.514-.006-.869-.339-.694-.683a.946.946,0,0,1,.674-.438c.972-.049,1.948-.02,2.917-.02l.54-1.146c-1.079,0-2.133,0-3.188,0-.424,0-.907.071-.972-.543-.043-.411.26-.575.991-.575q2.182,0,4.363,0c.176,0,.4,0,.554-.011h1.47a.57.57,0,0,0,.57-.57v-.118c.009-.742.006-1.484,0-2.227,0-.035,0-.07,0-.1v-.912a.614.614,0,0,0-.614-.614H39.356a.8.8,0,0,0-.8.8v9.966l.012.026a1.272,1.272,0,0,0-.012.17v.536a.461.461,0,0,0,.461.461H40.6a.455.455,0,0,0,.106-.013C42.016,35.968,43.328,36,44.76,36A6.325,6.325,0,0,1,43.97,32.034Zm-.846-5.683c.339.013.61.253.519.592a.871.871,0,0,1-.551.51,4.833,4.833,0,0,1-1.11.023c-.372,0-.744.01-1.115,0a.543.543,0,0,1-.59-.552.529.529,0,0,1,.564-.576C41.6,26.326,42.364,26.323,43.124,26.352Z" transform="translate(-38.56 -24.07)" fill="#fff"/>
    <path id="Path_28" data-name="Path 28" d="M227.931,179.652c0-.372-.018-.746,0-1.117a.756.756,0,0,0-.612-.858c-.844-.266-1.672-.583-2.519-.838a1.5,1.5,0,0,0-.816,0c-.864.259-1.709.582-2.57.85a.75.75,0,0,0-.6.814c.01.709-.009,1.419.008,2.128a3.42,3.42,0,0,0,.936,2.425A16.382,16.382,0,0,0,224,184.809a.978.978,0,0,0,.83-.028C226.895,183.706,228.206,182.153,227.931,179.652Zm-1.649.4c-.5.661-.993,1.333-1.5,1.991-.349.454-.639.47-1.055.071-.332-.318-.654-.646-.975-.975a.54.54,0,0,1-.039-.841.553.553,0,0,1,.845.048c.189.184.363.386.6.638.441-.587.823-1.092,1.2-1.6.244-.329.532-.574.927-.261C226.643,179.409,226.521,179.74,226.282,180.055Z" transform="translate(-214.292 -171.316)" fill="#fff"/>
  </g>
</svg>
