<svg xmlns="http://www.w3.org/2000/svg" width="14.563" height="13.106" viewBox="0 0 14.563 13.106">
  <g id="terms" transform="translate(0 0)">
    <path id="Path_35" data-name="Path 35" d="M134.968,70.065h-6V69.35q0-4.174,0-8.349a3.222,3.222,0,0,1,.081-.814,1.167,1.167,0,0,1,1.12-1.02c2.485-.018,4.971-.007,7.555-.007-.756.89-.555,1.922-.56,2.911-.013,2.72,0,5.44-.009,8.159a3.936,3.936,0,0,1-.117,1.062,1.112,1.112,0,0,1-1.276.861,1.351,1.351,0,0,1-.957-1.445C134.839,70.529,134.9,70.354,134.968,70.065Zm-1.932-5.136v0h1.754c.042,0,.084,0,.125,0a1.086,1.086,0,0,0,.965-1.652c-.593-1.11-1.218-2.205-1.879-3.275a1.053,1.053,0,0,0-1.866,0c-.662,1.07-1.286,2.165-1.879,3.275a1.081,1.081,0,0,0,.962,1.65C131.824,64.951,132.431,64.93,133.036,64.93Zm.048,2.866c.753,0,1.506.015,2.258-.011.17-.006.335-.155.5-.239-.157-.085-.314-.242-.472-.244q-2.29-.028-4.579,0a1.492,1.492,0,0,0-.5.215c.179.094.355.26.538.267C131.578,67.814,132.332,67.8,133.084,67.8Zm.048,1.029c-.791,0-1.583-.014-2.373.012-.159.005-.313.16-.469.245.145.083.289.235.435.237q2.342.026,4.685,0c.147,0,.292-.153.438-.234-.155-.086-.308-.243-.466-.248C134.631,68.81,133.881,68.825,133.132,68.825Zm-.111-2.587c.731,0,1.464.017,2.194-.011a2.276,2.276,0,0,0,.633-.221,2.084,2.084,0,0,0-.664-.262q-2.1-.037-4.2,0a2.429,2.429,0,0,0-.693.232,2.294,2.294,0,0,0,.661.251C131.64,66.259,132.331,66.238,133.02,66.238Z" transform="translate(-125.802 -59.131)" fill="#fff"/>
    <path id="Path_36" data-name="Path 36" d="M62.732,331c-.531,0-1.066,0-1.6,0-1.962.007-3.923.019-5.885.019-.868,0-1.474-.528-1.4-1.248.016-.16.243-.426.375-.427,2.65-.019,5.3-.006,7.95,0,.037,0,.073.036.03.014Z" transform="translate(-53.841 -317.916)" fill="#fff"/>
    <path id="Path_37" data-name="Path 37" d="M336.921,60.237a1.379,1.379,0,0,1,1.135-1.658,1.217,1.217,0,0,1,1.415.861c.16.563,0,.79-.566.8C338.242,60.241,337.577,60.237,336.921,60.237Z" transform="translate(-324.969 -58.555)" fill="#fff"/>
    <path id="Path_38" data-name="Path 38" d="M170.261,82.491c-.565,0-1.13.011-1.694,0-.714-.016-.963-.412-.625-1.027q.836-1.519,1.722-3.009c.342-.576.829-.584,1.169-.015q.9,1.515,1.753,3.063c.3.547.051.962-.568.984C171.432,82.507,170.847,82.49,170.261,82.491Zm.232-2.527h.006a7.344,7.344,0,0,0-.013-.884c-.012-.1-.169-.185-.26-.276-.073.088-.206.174-.209.265-.019.547-.018,1.1,0,1.643a.231.231,0,0,0,.461.009A5.879,5.879,0,0,0,170.493,79.964Zm.261,1.9c-.243-.162-.379-.322-.518-.325-.108,0-.325.215-.307.292a.52.52,0,0,0,.315.357C170.363,82.205,170.512,82.026,170.753,81.863Z" transform="translate(-162.986 -77.196)" fill="#fff"/>
  </g>
</svg>
